<mxfile host="app.diagrams.net" modified="2023-06-12T16:45:50.740Z" agent="Mozilla/5.0 (Windows NT 10.0; Win64; x64) AppleWebKit/537.36 (KHTML, like Gecko) Chrome/114.0.0.0 Safari/537.36 Edg/114.0.1823.43" etag="UtKR9tLmPfdjf5NP7edr" version="21.3.8" type="device">
  <diagram name="PÃ¡gina-1" id="JmG3GwpAE5fcn18zszXR">
    <mxGraphModel dx="1386" dy="820" grid="1" gridSize="10" guides="1" tooltips="1" connect="1" arrows="1" fold="1" page="1" pageScale="1" pageWidth="827" pageHeight="1169" math="0" shadow="0">
      <root>
        <mxCell id="0" />
        <mxCell id="1" parent="0" />
        <mxCell id="TbI5AXphlyzoP5eOwEno-3" value="" style="outlineConnect=0;html=1;whiteSpace=wrap;fontSize=12;fontStyle=0;strokeColor=#6c8ebf;fillColor=none;verticalAlign=top;align=center;dashed=1;spacingTop=3;" vertex="1" parent="1">
          <mxGeometry x="190" y="140" width="540" height="480" as="geometry" />
        </mxCell>
        <mxCell id="F5zMpHnIpJGTu0lZ9Wiw-11" value="" style="rounded=1;arcSize=10;strokeColor=none;fillColor=#DBDBDB;gradientColor=none;opacity=40;" parent="1" vertex="1">
          <mxGeometry x="220" y="316.53" width="260" height="268.47" as="geometry" />
        </mxCell>
        <mxCell id="F5zMpHnIpJGTu0lZ9Wiw-1" value="App Service" style="image;aspect=fixed;html=1;points=[];align=left;fontSize=12;image=img/lib/azure2/app_services/App_Services.svg;labelPosition=right;verticalLabelPosition=top;verticalAlign=bottom;fontStyle=1" parent="1" vertex="1">
          <mxGeometry x="200" y="305" width="50" height="50" as="geometry" />
        </mxCell>
        <mxCell id="F5zMpHnIpJGTu0lZ9Wiw-23" style="edgeStyle=orthogonalEdgeStyle;rounded=0;orthogonalLoop=1;jettySize=auto;html=1;dashed=1;startArrow=classic;startFill=1;" parent="1" source="F5zMpHnIpJGTu0lZ9Wiw-2" target="F5zMpHnIpJGTu0lZ9Wiw-11" edge="1">
          <mxGeometry relative="1" as="geometry" />
        </mxCell>
        <mxCell id="F5zMpHnIpJGTu0lZ9Wiw-2" value="Key Vault" style="image;aspect=fixed;html=1;points=[];align=center;fontSize=12;image=img/lib/azure2/security/Key_Vaults.svg;" parent="1" vertex="1">
          <mxGeometry x="323" y="180" width="54" height="54" as="geometry" />
        </mxCell>
        <mxCell id="F5zMpHnIpJGTu0lZ9Wiw-4" value="SQL Database" style="image;sketch=0;aspect=fixed;html=1;points=[];align=center;fontSize=12;image=img/lib/mscae/SQL_Database_generic.svg;labelBackgroundColor=none;" parent="1" vertex="1">
          <mxGeometry x="631" y="361.12" width="38" height="50" as="geometry" />
        </mxCell>
        <mxCell id="F5zMpHnIpJGTu0lZ9Wiw-16" style="rounded=0;orthogonalLoop=1;jettySize=auto;html=1;entryX=0;entryY=0.5;entryDx=0;entryDy=0;edgeStyle=elbowEdgeStyle;" parent="1" source="F5zMpHnIpJGTu0lZ9Wiw-6" target="F5zMpHnIpJGTu0lZ9Wiw-13" edge="1">
          <mxGeometry relative="1" as="geometry">
            <Array as="points">
              <mxPoint x="380" y="375" />
            </Array>
          </mxGeometry>
        </mxCell>
        <mxCell id="F5zMpHnIpJGTu0lZ9Wiw-6" value="templates" style="image;aspect=fixed;html=1;points=[];align=center;fontSize=12;image=img/lib/azure2/general/Folder_Blank.svg;fontStyle=1;labelBackgroundColor=none;" parent="1" vertex="1">
          <mxGeometry x="364.36" y="331.12" width="44.36" height="36" as="geometry" />
        </mxCell>
        <mxCell id="F5zMpHnIpJGTu0lZ9Wiw-7" value="keys_admin.py" style="verticalLabelPosition=bottom;html=1;verticalAlign=top;align=center;strokeColor=none;fillColor=#00BEF2;shape=mxgraph.azure.code_file;pointerEvents=1;aspect=fixed;" parent="1" vertex="1">
          <mxGeometry x="415.68000000000006" y="495" width="37" height="38.97" as="geometry" />
        </mxCell>
        <mxCell id="F5zMpHnIpJGTu0lZ9Wiw-12" value="app.py" style="sketch=0;aspect=fixed;pointerEvents=1;shadow=0;dashed=0;html=1;strokeColor=none;labelPosition=center;verticalLabelPosition=bottom;verticalAlign=top;align=center;fillColor=#00188D;shape=mxgraph.azure.code_file" parent="1" vertex="1">
          <mxGeometry x="264" y="495" width="40" height="42.58" as="geometry" />
        </mxCell>
        <mxCell id="F5zMpHnIpJGTu0lZ9Wiw-13" value="" style="shape=image;html=1;verticalAlign=top;verticalLabelPosition=bottom;labelBackgroundColor=#ffffff;imageAspect=0;aspect=fixed;image=https://cdn1.iconfinder.com/data/icons/bootstrap-vol-3/16/filetype-html-128.png" parent="1" vertex="1">
          <mxGeometry x="412.36" y="387.12" width="40" height="40" as="geometry" />
        </mxCell>
        <mxCell id="F5zMpHnIpJGTu0lZ9Wiw-17" style="rounded=0;orthogonalLoop=1;jettySize=auto;html=1;entryX=0;entryY=0.5;entryDx=0;entryDy=0;edgeStyle=elbowEdgeStyle;entryPerimeter=0;" parent="1" source="F5zMpHnIpJGTu0lZ9Wiw-18" target="F5zMpHnIpJGTu0lZ9Wiw-7" edge="1">
          <mxGeometry relative="1" as="geometry">
            <Array as="points">
              <mxPoint x="381.32" y="493.97" />
            </Array>
            <mxPoint x="395.32" y="513.97" as="targetPoint" />
          </mxGeometry>
        </mxCell>
        <mxCell id="F5zMpHnIpJGTu0lZ9Wiw-18" value="keyvault" style="image;aspect=fixed;html=1;points=[];align=center;fontSize=12;image=img/lib/azure2/general/Folder_Blank.svg;fontStyle=1;labelBackgroundColor=none;" parent="1" vertex="1">
          <mxGeometry x="355.32" y="445" width="44.36" height="36" as="geometry" />
        </mxCell>
        <mxCell id="F5zMpHnIpJGTu0lZ9Wiw-21" value="controller.py" style="verticalLabelPosition=bottom;html=1;verticalAlign=top;align=center;strokeColor=none;fillColor=#00BEF2;shape=mxgraph.azure.code_file;pointerEvents=1;aspect=fixed;" parent="1" vertex="1">
          <mxGeometry x="264" y="408.94" width="40" height="42.12" as="geometry" />
        </mxCell>
        <mxCell id="F5zMpHnIpJGTu0lZ9Wiw-22" value="models.py" style="verticalLabelPosition=bottom;html=1;verticalAlign=top;align=center;strokeColor=none;fillColor=#00BEF2;shape=mxgraph.azure.code_file;pointerEvents=1;aspect=fixed;" parent="1" vertex="1">
          <mxGeometry x="264" y="331.12" width="40" height="42.12" as="geometry" />
        </mxCell>
        <mxCell id="F5zMpHnIpJGTu0lZ9Wiw-25" style="rounded=0;orthogonalLoop=1;jettySize=auto;html=1;entryX=1;entryY=0.25;entryDx=0;entryDy=0;dashed=1;endArrow=classic;endFill=1;startArrow=classic;startFill=1;" parent="1" source="F5zMpHnIpJGTu0lZ9Wiw-24" target="F5zMpHnIpJGTu0lZ9Wiw-11" edge="1">
          <mxGeometry relative="1" as="geometry" />
        </mxCell>
        <mxCell id="F5zMpHnIpJGTu0lZ9Wiw-24" value="" style="rounded=1;arcSize=10;strokeColor=#6c8ebf;fillColor=#dae8fc;opacity=20;" parent="1" vertex="1">
          <mxGeometry x="580" y="331.12" width="140" height="110" as="geometry" />
        </mxCell>
        <mxCell id="F5zMpHnIpJGTu0lZ9Wiw-3" value="SQL server" style="image;aspect=fixed;html=1;points=[];align=left;fontSize=12;image=img/lib/azure2/databases/SQL_Server.svg;labelBackgroundColor=none;labelPosition=right;verticalLabelPosition=top;verticalAlign=bottom;fontStyle=1" parent="1" vertex="1">
          <mxGeometry x="570" y="331.12" width="40" height="40" as="geometry" />
        </mxCell>
        <mxCell id="F5zMpHnIpJGTu0lZ9Wiw-26" value="" style="verticalLabelPosition=bottom;html=1;verticalAlign=top;align=center;strokeColor=none;fillColor=#00BEF2;shape=mxgraph.azure.service_endpoint;" parent="1" vertex="1">
          <mxGeometry x="170" y="420" width="50" height="20" as="geometry" />
        </mxCell>
        <mxCell id="F5zMpHnIpJGTu0lZ9Wiw-28" style="edgeStyle=orthogonalEdgeStyle;rounded=0;orthogonalLoop=1;jettySize=auto;html=1;entryX=0;entryY=0.5;entryDx=0;entryDy=0;entryPerimeter=0;" parent="1" source="F5zMpHnIpJGTu0lZ9Wiw-27" target="F5zMpHnIpJGTu0lZ9Wiw-26" edge="1">
          <mxGeometry relative="1" as="geometry" />
        </mxCell>
        <mxCell id="F5zMpHnIpJGTu0lZ9Wiw-27" value="" style="verticalLabelPosition=bottom;html=1;verticalAlign=top;align=center;strokeColor=none;fillColor=#00BEF2;shape=mxgraph.azure.user;" parent="1" vertex="1">
          <mxGeometry x="60" y="405" width="47.5" height="50" as="geometry" />
        </mxCell>
        <mxCell id="TbI5AXphlyzoP5eOwEno-1" value="" style="image;aspect=fixed;html=1;points=[];align=center;fontSize=12;image=img/lib/azure2/identity/Azure_Active_Directory.svg;" vertex="1" parent="1">
          <mxGeometry x="200" y="150" width="32.81" height="30" as="geometry" />
        </mxCell>
      </root>
    </mxGraphModel>
  </diagram>
</mxfile>
